<svg width="128" height="128" viewBox="0 0 128 128" fill="none" xmlns="http://www.w3.org/2000/svg">
<rect width="128" height="128" rx="20" fill="#F5F5F5"/>
<path d="M50.7085 65.0036V63.0375C50.7085 56.6477 51.9783 51.2 54.5178 46.6944C57.0573 42.1069 60.416 38.6253 64.5939 36.2496C68.8538 33.792 73.4823 32.5632 78.4794 32.5632C84.0499 32.5632 88.2688 33.5463 91.136 35.5124C94.0032 37.4784 96.0922 39.5264 97.4029 41.6564H99.6147V34.2836H114.852V106.045C114.852 110.223 113.623 113.541 111.165 115.999C108.708 118.538 105.431 119.808 101.335 119.808H60.5389V106.291H95.9283C98.2221 106.291 99.369 105.062 99.369 102.605V86.7533H97.1571C96.3379 88.064 95.1911 89.4157 93.7165 90.8084C92.2419 92.1191 90.2759 93.225 87.8183 94.1261C85.3607 95.0272 82.2477 95.4778 78.4794 95.4778C73.4823 95.4778 68.8538 94.29 64.5939 91.9143C60.416 89.4567 57.0573 85.9751 54.5178 81.4695C51.9783 76.882 50.7085 71.3933 50.7085 65.0036ZM82.9031 81.961C87.6544 81.961 91.6275 80.4455 94.8224 77.4144C98.0173 74.3834 99.6147 70.1236 99.6147 64.6349V63.4061C99.6147 57.8356 98.0173 53.5757 94.8224 50.6266C91.7095 47.5956 87.7363 46.08 82.9031 46.08C78.1517 46.08 74.1786 47.5956 70.9837 50.6266C67.7888 53.5757 66.1914 57.8356 66.1914 63.4061V64.6349C66.1914 70.1236 67.7888 74.3834 70.9837 77.4144C74.1786 80.4455 78.1517 81.961 82.9031 81.961Z" fill="#34B87E"/>
<path d="M39.0347 96.9524C31.0884 96.9524 24.5758 95.232 19.4968 91.7914C14.4177 88.3508 11.3457 83.4356 10.2808 77.0458L24.5348 73.3594C25.1083 76.2266 26.0504 78.4794 27.3611 80.1178C28.7537 81.7562 30.4331 82.944 32.3992 83.6813C34.4472 84.3367 36.659 84.6644 39.0347 84.6644C42.6392 84.6644 45.3016 84.05 47.0219 82.8212C48.7422 81.5104 49.6024 79.913 49.6024 78.0288C49.6024 76.1447 48.7832 74.7111 47.1448 73.728C45.5064 72.6631 42.8849 71.8029 39.2804 71.1476L35.8398 70.5332C31.58 69.714 27.6888 68.608 24.1662 67.2154C20.6436 65.7408 17.8174 63.7338 15.6875 61.1943C13.5576 58.6548 12.4926 55.378 12.4926 51.3639C12.4926 45.3018 14.7044 40.6733 19.1281 37.4784C23.5518 34.2016 29.3681 32.5632 36.5771 32.5632C43.3764 32.5632 49.0289 34.0788 53.5345 37.1098C58.0401 40.1408 60.9892 44.114 62.3819 49.0292L48.0049 53.4528C47.3496 50.3399 45.9979 48.128 43.9499 46.8173C41.9838 45.5066 39.5262 44.8512 36.5771 44.8512C33.628 44.8512 31.3752 45.3837 29.8187 46.4487C28.2622 47.4317 27.484 48.8244 27.484 50.6266C27.484 52.5927 28.3032 54.0672 29.9416 55.0503C31.58 55.9514 33.7918 56.6477 36.5771 57.1392L40.0177 57.7536C44.6052 58.5728 48.7422 59.6788 52.4286 61.0714C56.1969 62.3821 59.146 64.3072 61.276 66.8468C63.4878 69.3044 64.5937 72.6631 64.5937 76.9229C64.5937 83.3127 62.259 88.2688 57.5896 91.7914C53.002 95.232 46.8171 96.9524 39.0347 96.9524Z" fill="#151718"/>
</svg>
