<svg width="105" height="88" viewBox="0 0 105 88" fill="none" xmlns="http://www.w3.org/2000/svg">
<path d="M40.4277 32.4403V30.4742C40.4277 24.0845 41.6975 18.6368 44.237 14.1312C46.7765 9.54368 50.1353 6.06208 54.3132 3.6864C58.573 1.2288 63.2015 0 68.1986 0C73.7692 0 77.9881 0.983041 80.8553 2.94912C83.7225 4.9152 85.8114 6.9632 87.1221 9.09312H89.334V1.72032H104.571V73.4822C104.571 77.6602 103.342 80.9779 100.885 83.4355C98.4271 85.975 95.1503 87.2448 91.0543 87.2448H50.2581V73.728H85.6476C87.9413 73.728 89.0882 72.4992 89.0882 70.0416V54.1901H86.8764C86.0572 55.5008 84.9103 56.8525 83.4357 58.2451C81.9612 59.5558 79.9951 60.6618 77.5375 61.5629C75.0799 62.464 71.9669 62.9146 68.1986 62.9146C63.2015 62.9146 58.573 61.7267 54.3132 59.351C50.1353 56.8934 46.7765 53.4118 44.237 48.9062C41.6975 44.3187 40.4277 38.8301 40.4277 32.4403ZM72.6223 49.3978C77.3737 49.3978 81.3468 47.8822 84.5417 44.8512C87.7365 41.8202 89.334 37.5603 89.334 32.0717V30.8429C89.334 25.2723 87.7365 21.0125 84.5417 18.0634C81.4287 15.0323 77.4556 13.5168 72.6223 13.5168C67.8709 13.5168 63.8978 15.0323 60.7029 18.0634C57.5081 21.0125 55.9106 25.2723 55.9106 30.8429V32.0717C55.9106 37.5603 57.5081 41.8202 60.7029 44.8512C63.8978 47.8822 67.8709 49.3978 72.6223 49.3978Z" fill="#34B87E"/>
<path d="M28.7539 64.3891C20.8077 64.3891 14.295 62.6688 9.216 59.2282C4.13696 55.7875 1.06496 50.8723 0 44.4826L14.2541 40.7962C14.8275 43.6634 15.7696 45.9162 17.0803 47.5546C18.473 49.193 20.1523 50.3808 22.1184 51.1181C24.1664 51.7734 26.3782 52.1011 28.7539 52.1011C32.3584 52.1011 35.0208 51.4867 36.7411 50.2579C38.4614 48.9472 39.3216 47.3498 39.3216 45.4656C39.3216 43.5814 38.5024 42.1478 36.864 41.1648C35.2256 40.0998 32.6042 39.2397 28.9997 38.5843L25.559 37.9699C21.2992 37.1507 17.408 36.0448 13.8854 34.6522C10.3629 33.1776 7.53664 31.1706 5.40672 28.631C3.2768 26.0915 2.21184 22.8147 2.21184 18.8006C2.21184 12.7386 4.42368 8.11008 8.84736 4.9152C13.271 1.6384 19.0874 0 26.2963 0C33.0957 0 38.7482 1.51552 43.2538 4.54656C47.7594 7.5776 50.7085 11.5507 52.1011 16.4659L37.7242 20.8896C37.0688 17.7766 35.7171 15.5648 33.6691 14.2541C31.703 12.9434 29.2454 12.288 26.2963 12.288C23.3472 12.288 21.0944 12.8205 19.5379 13.8854C17.9814 14.8685 17.2032 16.2611 17.2032 18.0634C17.2032 20.0294 18.0224 21.504 19.6608 22.487C21.2992 23.3882 23.511 24.0845 26.2963 24.576L29.737 25.1904C34.3245 26.0096 38.4614 27.1155 42.1478 28.5082C45.9162 29.8189 48.8653 31.744 50.9952 34.2835C53.207 36.7411 54.313 40.0998 54.313 44.3597C54.313 50.7494 51.9782 55.7056 47.3088 59.2282C42.7213 62.6688 36.5363 64.3891 28.7539 64.3891Z" fill="#151718"/>
</svg>
