<svg width="461" height="154" viewBox="0 0 461 154" fill="none" xmlns="http://www.w3.org/2000/svg">
<path d="M220.12 153.36C214.76 153.36 210.64 152.44 207.76 150.6C204.88 148.76 202.76 146.72 201.4 144.48H199.24V151.68H184.36V67.6799H199.48V98.9999H201.64C202.52 97.5599 203.68 96.1999 205.12 94.9199C206.64 93.6399 208.6 92.5999 211 91.7999C213.48 90.9199 216.52 90.4799 220.12 90.4799C224.92 90.4799 229.36 91.6799 233.44 94.0799C237.52 96.3999 240.8 99.8399 243.28 104.4C245.76 108.96 247 114.48 247 120.96V122.88C247 129.36 245.76 134.88 243.28 139.44C240.8 144 237.52 147.48 233.44 149.88C229.36 152.2 224.92 153.36 220.12 153.36ZM215.56 140.16C220.2 140.16 224.08 138.68 227.2 135.72C230.32 132.68 231.88 128.28 231.88 122.52V121.32C231.88 115.56 230.32 111.2 227.2 108.24C224.16 105.2 220.28 103.68 215.56 103.68C210.92 103.68 207.04 105.2 203.92 108.24C200.8 111.2 199.24 115.56 199.24 121.32V122.52C199.24 128.28 200.8 132.68 203.92 135.72C207.04 138.68 210.92 140.16 215.56 140.16Z" fill="#4474B8"/>
<path d="M277.203 153.36C271.283 153.36 265.963 152.16 261.243 149.76C256.523 147.36 252.803 143.88 250.083 139.32C247.363 134.76 246.003 129.28 246.003 122.88V120.96C246.003 114.56 247.363 109.08 250.083 104.52C252.803 99.9599 256.523 96.4799 261.243 94.0799C265.963 91.6799 271.283 90.4799 277.203 90.4799C283.123 90.4799 288.443 91.6799 293.163 94.0799C297.883 96.4799 301.603 99.9599 304.323 104.52C307.043 109.08 308.403 114.56 308.403 120.96V122.88C308.403 129.28 307.043 134.76 304.323 139.32C301.603 143.88 297.883 147.36 293.163 149.76C288.443 152.16 283.123 153.36 277.203 153.36ZM277.203 139.92C281.843 139.92 285.683 138.44 288.723 135.48C291.763 132.44 293.283 128.12 293.283 122.52V121.32C293.283 115.72 291.763 111.44 288.723 108.48C285.763 105.44 281.923 103.92 277.203 103.92C272.563 103.92 268.723 105.44 265.683 108.48C262.643 111.44 261.123 115.72 261.123 121.32V122.52C261.123 128.12 262.643 132.44 265.683 135.48C268.723 138.44 272.563 139.92 277.203 139.92Z" fill="#4474B8"/>
<path d="M328.84 153.36C324.6 153.36 320.8 152.64 317.44 151.2C314.08 149.68 311.4 147.52 309.4 144.72C307.48 141.84 306.52 138.36 306.52 134.28C306.52 130.2 307.48 126.8 309.4 124.08C311.4 121.28 314.12 119.2 317.56 117.84C321.08 116.4 325.08 115.68 329.56 115.68H345.88V112.32C345.88 109.52 345 107.24 343.24 105.48C341.48 103.64 338.68 102.72 334.84 102.72C331.08 102.72 328.28 103.6 326.44 105.36C324.6 107.04 323.4 109.24 322.84 111.96L308.92 107.28C309.88 104.24 311.4 101.48 313.48 98.9999C315.64 96.4399 318.48 94.3999 322 92.8799C325.6 91.2799 329.96 90.4799 335.08 90.4799C342.92 90.4799 349.12 92.4399 353.68 96.3599C358.24 100.28 360.52 105.96 360.52 113.4V135.6C360.52 138 361.64 139.2 363.88 139.2H368.68V151.68H358.6C355.64 151.68 353.2 150.96 351.28 149.52C349.36 148.08 348.4 146.16 348.4 143.76V143.64H346.12C345.8 144.6 345.08 145.88 343.96 147.48C342.84 149 341.08 150.36 338.68 151.56C336.28 152.76 333 153.36 328.84 153.36ZM331.48 141.12C335.72 141.12 339.16 139.96 341.8 137.64C344.52 135.24 345.88 132.08 345.88 128.16V126.96H330.64C327.84 126.96 325.64 127.56 324.04 128.76C322.44 129.96 321.64 131.64 321.64 133.8C321.64 135.96 322.48 137.72 324.16 139.08C325.84 140.44 328.28 141.12 331.48 141.12Z" fill="#4474B8"/>
<path d="M367.735 151.68V92.1599H382.615V98.8799H384.775C385.655 96.4799 387.095 94.7199 389.095 93.5999C391.175 92.4799 393.575 91.9199 396.295 91.9199H403.495V105.36H396.055C392.215 105.36 389.055 106.4 386.575 108.48C384.095 110.48 382.855 113.6 382.855 117.84V151.68H367.735Z" fill="#4474B8"/>
<path d="M425.204 153.36C420.484 153.36 416.044 152.2 411.884 149.88C407.804 147.48 404.524 144 402.044 139.44C399.564 134.88 398.324 129.36 398.324 122.88V120.96C398.324 114.48 399.564 108.96 402.044 104.4C404.524 99.8399 407.804 96.3999 411.884 94.0799C415.964 91.6799 420.404 90.4799 425.204 90.4799C428.804 90.4799 431.804 90.9199 434.204 91.7999C436.684 92.5999 438.684 93.6399 440.204 94.9199C441.724 96.1999 442.884 97.5599 443.684 98.9999H445.844V67.6799H460.964V151.68H446.084V144.48H443.924C442.564 146.72 440.444 148.76 437.564 150.6C434.764 152.44 430.644 153.36 425.204 153.36ZM429.764 140.16C434.404 140.16 438.284 138.68 441.404 135.72C444.524 132.68 446.084 128.28 446.084 122.52V121.32C446.084 115.56 444.524 111.2 441.404 108.24C438.364 105.2 434.484 103.68 429.764 103.68C425.124 103.68 421.244 105.2 418.124 108.24C415.004 111.2 413.444 115.56 413.444 121.32V122.52C413.444 128.28 415.004 132.68 418.124 135.72C421.244 138.68 425.124 140.16 429.764 140.16Z" fill="#4474B8"/>
<path d="M28.08 87.36C20.32 87.36 13.96 85.68 9 82.32C4.04 78.96 1.04 74.16 0 67.92L13.92 64.32C14.48 67.12 15.4 69.32 16.68 70.92C18.04 72.52 19.68 73.68 21.6 74.4C23.6 75.04 25.76 75.36 28.08 75.36C31.6 75.36 34.2 74.76 35.88 73.56C37.56 72.28 38.4 70.72 38.4 68.88C38.4 67.04 37.6 65.64 36 64.68C34.4 63.64 31.84 62.8 28.32 62.16L24.96 61.56C20.8 60.76 17 59.68 13.56 58.32C10.12 56.88 7.36 54.92 5.28 52.44C3.2 49.96 2.16 46.76 2.16 42.84C2.16 36.92 4.32 32.4 8.64 29.28C12.96 26.08 18.64 24.48 25.68 24.48C32.32 24.48 37.84 25.96 42.24 28.92C46.64 31.88 49.52 35.76 50.88 40.56L36.84 44.88C36.2 41.84 34.88 39.68 32.88 38.4C30.96 37.12 28.56 36.48 25.68 36.48C22.8 36.48 20.6 37 19.08 38.04C17.56 39 16.8 40.36 16.8 42.12C16.8 44.04 17.6 45.48 19.2 46.44C20.8 47.32 22.96 48 25.68 48.48L29.04 49.08C33.52 49.88 37.56 50.96 41.16 52.32C44.84 53.6 47.72 55.48 49.8 57.96C51.96 60.36 53.04 63.64 53.04 67.8C53.04 74.04 50.76 78.88 46.2 82.32C41.72 85.68 35.68 87.36 28.08 87.36Z" fill="#151718"/>
<path d="M54.2897 85.68V26.16H69.4097V85.68H54.2897ZM61.8497 19.2C59.1297 19.2 56.8097 18.32 54.8897 16.56C53.0497 14.8 52.1297 12.48 52.1297 9.60001C52.1297 6.72 53.0497 4.4 54.8897 2.64C56.8097 0.880001 59.1297 0 61.8497 0C64.6497 0 66.9697 0.880001 68.8097 2.64C70.6497 4.4 71.5697 6.72 71.5697 9.60001C71.5697 12.48 70.6497 14.8 68.8097 16.56C66.9697 18.32 64.6497 19.2 61.8497 19.2Z" fill="#151718"/>
<path d="M74.1647 85.68V26.16H89.0447V32.64H91.2047C92.2447 30.64 93.9647 28.92 96.3647 27.48C98.7647 25.96 101.925 25.2 105.845 25.2C110.085 25.2 113.485 26.04 116.045 27.72C118.605 29.32 120.565 31.44 121.925 34.08H124.085C125.445 31.52 127.365 29.4 129.845 27.72C132.325 26.04 135.845 25.2 140.405 25.2C144.085 25.2 147.405 26 150.365 27.6C153.405 29.12 155.805 31.48 157.565 34.68C159.405 37.8 160.325 41.76 160.325 46.56V85.68H145.205V47.64C145.205 44.36 144.365 41.92 142.685 40.32C141.005 38.64 138.645 37.8 135.605 37.8C132.165 37.8 129.485 38.92 127.565 41.16C125.725 43.32 124.805 46.44 124.805 50.52V85.68H109.685V47.64C109.685 44.36 108.845 41.92 107.165 40.32C105.485 38.64 103.125 37.8 100.085 37.8C96.6447 37.8 93.9647 38.92 92.0447 41.16C90.2047 43.32 89.2847 46.44 89.2847 50.52V85.68H74.1647Z" fill="#151718"/>
<path d="M164.587 109.68V26.16H179.467V33.36H181.627C182.987 31.04 185.107 29 187.987 27.24C190.867 25.4 194.987 24.48 200.347 24.48C205.147 24.48 209.587 25.68 213.667 28.08C217.747 30.4 221.027 33.84 223.507 38.4C225.987 42.96 227.227 48.48 227.227 54.96V56.88C227.227 63.36 225.987 68.88 223.507 73.44C221.027 78 217.747 81.48 213.667 83.88C209.587 86.2 205.147 87.36 200.347 87.36C196.747 87.36 193.707 86.92 191.227 86.04C188.827 85.24 186.867 84.2 185.347 82.92C183.907 81.56 182.747 80.2 181.867 78.84H179.707V109.68H164.587ZM195.787 74.16C200.507 74.16 204.387 72.68 207.427 69.72C210.547 66.68 212.107 62.28 212.107 56.52V55.32C212.107 49.56 210.547 45.2 207.427 42.24C204.307 39.2 200.427 37.68 195.787 37.68C191.147 37.68 187.267 39.2 184.147 42.24C181.027 45.2 179.467 49.56 179.467 55.32V56.52C179.467 62.28 181.027 66.68 184.147 69.72C187.267 72.68 191.147 74.16 195.787 74.16Z" fill="#151718"/>
<path d="M229.11 85.68V1.68H244.23V85.68H229.11Z" fill="#151718"/>
<path d="M276.105 87.36C270.185 87.36 264.945 86.12 260.385 83.64C255.905 81.08 252.385 77.52 249.825 72.96C247.345 68.32 246.105 62.88 246.105 56.64V55.2C246.105 48.96 247.345 43.56 249.825 39C252.305 34.36 255.785 30.8 260.265 28.32C264.745 25.76 269.945 24.48 275.865 24.48C281.705 24.48 286.785 25.8 291.105 28.44C295.425 31 298.785 34.6 301.185 39.24C303.585 43.8 304.785 49.12 304.785 55.2V60.36H261.465C261.625 64.44 263.145 67.76 266.025 70.32C268.905 72.88 272.425 74.16 276.585 74.16C280.825 74.16 283.945 73.24 285.945 71.4C287.945 69.56 289.465 67.52 290.505 65.28L302.865 71.76C301.745 73.84 300.105 76.12 297.945 78.6C295.865 81 293.065 83.08 289.545 84.84C286.025 86.52 281.545 87.36 276.105 87.36ZM261.585 49.08H289.425C289.105 45.64 287.705 42.88 285.225 40.8C282.825 38.72 279.665 37.68 275.745 37.68C271.665 37.68 268.425 38.72 266.025 40.8C263.625 42.88 262.145 45.64 261.585 49.08Z" fill="#151718"/>
</svg>
