<svg width="400" height="176" viewBox="0 0 400 176" fill="none" xmlns="http://www.w3.org/2000/svg">
<path d="M181.48 122.16V120.24C181.48 114 182.72 108.68 185.2 104.28C187.68 99.7999 190.96 96.3999 195.04 94.0799C199.2 91.6799 203.72 90.4799 208.6 90.4799C214.04 90.4799 218.16 91.4399 220.96 93.3599C223.76 95.2799 225.8 97.2799 227.08 99.3599H229.24V92.1599H244.12V162.24C244.12 166.32 242.92 169.56 240.52 171.96C238.12 174.44 234.92 175.68 230.92 175.68H191.08V162.48H225.64C227.88 162.48 229 161.28 229 158.88V143.4H226.84C226.04 144.68 224.92 146 223.48 147.36C222.04 148.64 220.12 149.72 217.72 150.6C215.32 151.48 212.28 151.92 208.6 151.92C203.72 151.92 199.2 150.76 195.04 148.44C190.96 146.04 187.68 142.64 185.2 138.24C182.72 133.76 181.48 128.4 181.48 122.16ZM212.92 138.72C217.56 138.72 221.44 137.24 224.56 134.28C227.68 131.32 229.24 127.16 229.24 121.8V120.6C229.24 115.16 227.68 111 224.56 108.12C221.52 105.16 217.64 103.68 212.92 103.68C208.28 103.68 204.4 105.16 201.28 108.12C198.16 111 196.6 115.16 196.6 120.6V121.8C196.6 127.16 198.16 131.32 201.28 134.28C204.4 137.24 208.28 138.72 212.92 138.72Z" fill="#34B87E"/>
<path d="M248.883 151.68V92.1599H263.763V98.8799H265.923C266.803 96.4799 268.243 94.7199 270.243 93.5999C272.323 92.4799 274.723 91.9199 277.443 91.9199H284.643V105.36H277.203C273.363 105.36 270.203 106.4 267.723 108.48C265.243 110.48 264.003 113.6 264.003 117.84V151.68H248.883Z" fill="#34B87E"/>
<path d="M301.535 153.36C297.295 153.36 293.495 152.64 290.135 151.2C286.775 149.68 284.095 147.52 282.095 144.72C280.175 141.84 279.215 138.36 279.215 134.28C279.215 130.2 280.175 126.8 282.095 124.08C284.095 121.28 286.815 119.2 290.255 117.84C293.775 116.4 297.775 115.68 302.255 115.68H318.575V112.32C318.575 109.52 317.695 107.24 315.935 105.48C314.175 103.64 311.375 102.72 307.535 102.72C303.775 102.72 300.975 103.6 299.135 105.36C297.295 107.04 296.095 109.24 295.535 111.96L281.615 107.28C282.575 104.24 284.095 101.48 286.175 98.9999C288.335 96.4399 291.175 94.3999 294.695 92.8799C298.295 91.2799 302.655 90.4799 307.775 90.4799C315.615 90.4799 321.815 92.4399 326.375 96.3599C330.935 100.28 333.215 105.96 333.215 113.4V135.6C333.215 138 334.335 139.2 336.575 139.2H341.375V151.68H331.295C328.335 151.68 325.895 150.96 323.975 149.52C322.055 148.08 321.095 146.16 321.095 143.76V143.64H318.815C318.495 144.6 317.775 145.88 316.655 147.48C315.535 149 313.775 150.36 311.375 151.56C308.975 152.76 305.695 153.36 301.535 153.36ZM304.175 141.12C308.415 141.12 311.855 139.96 314.495 137.64C317.215 135.24 318.575 132.08 318.575 128.16V126.96H303.335C300.535 126.96 298.335 127.56 296.735 128.76C295.135 129.96 294.335 131.64 294.335 133.8C294.335 135.96 295.175 137.72 296.855 139.08C298.535 140.44 300.975 141.12 304.175 141.12Z" fill="#34B87E"/>
<path d="M363.258 153.36C358.538 153.36 354.098 152.2 349.938 149.88C345.858 147.48 342.578 144 340.098 139.44C337.618 134.88 336.378 129.36 336.378 122.88V120.96C336.378 114.48 337.618 108.96 340.098 104.4C342.578 99.8399 345.858 96.3999 349.938 94.0799C354.018 91.6799 358.458 90.4799 363.258 90.4799C366.858 90.4799 369.858 90.9199 372.258 91.7999C374.738 92.5999 376.738 93.6399 378.258 94.9199C379.778 96.1999 380.938 97.5599 381.738 98.9999H383.898V67.6799H399.018V151.68H384.138V144.48H381.978C380.618 146.72 378.498 148.76 375.618 150.6C372.818 152.44 368.698 153.36 363.258 153.36ZM367.818 140.16C372.458 140.16 376.338 138.68 379.458 135.72C382.578 132.68 384.138 128.28 384.138 122.52V121.32C384.138 115.56 382.578 111.2 379.458 108.24C376.418 105.2 372.538 103.68 367.818 103.68C363.178 103.68 359.298 105.2 356.178 108.24C353.058 111.2 351.498 115.56 351.498 121.32V122.52C351.498 128.28 353.058 132.68 356.178 135.72C359.298 138.68 363.178 140.16 367.818 140.16Z" fill="#34B87E"/>
<path d="M28.08 87.36C20.32 87.36 13.96 85.68 9 82.32C4.04 78.96 1.04 74.16 0 67.92L13.92 64.32C14.48 67.12 15.4 69.32 16.68 70.92C18.04 72.52 19.68 73.68 21.6 74.4C23.6 75.04 25.76 75.36 28.08 75.36C31.6 75.36 34.2 74.76 35.88 73.56C37.56 72.28 38.4 70.72 38.4 68.88C38.4 67.04 37.6 65.64 36 64.68C34.4 63.64 31.84 62.8 28.32 62.16L24.96 61.56C20.8 60.76 17 59.68 13.56 58.32C10.12 56.88 7.36 54.92 5.28 52.44C3.2 49.96 2.16 46.76 2.16 42.84C2.16 36.92 4.32 32.4 8.64 29.28C12.96 26.08 18.64 24.48 25.68 24.48C32.32 24.48 37.84 25.96 42.24 28.92C46.64 31.88 49.52 35.76 50.88 40.56L36.84 44.88C36.2 41.84 34.88 39.68 32.88 38.4C30.96 37.12 28.56 36.48 25.68 36.48C22.8 36.48 20.6 37 19.08 38.04C17.56 39 16.8 40.36 16.8 42.12C16.8 44.04 17.6 45.48 19.2 46.44C20.8 47.32 22.96 48 25.68 48.48L29.04 49.08C33.52 49.88 37.56 50.96 41.16 52.32C44.84 53.6 47.72 55.48 49.8 57.96C51.96 60.36 53.04 63.64 53.04 67.8C53.04 74.04 50.76 78.88 46.2 82.32C41.72 85.68 35.68 87.36 28.08 87.36Z" fill="#151718"/>
<path d="M54.2897 85.68V26.16H69.4097V85.68H54.2897ZM61.8497 19.2C59.1297 19.2 56.8097 18.32 54.8897 16.56C53.0497 14.8 52.1297 12.48 52.1297 9.60001C52.1297 6.72 53.0497 4.4 54.8897 2.64C56.8097 0.880001 59.1297 0 61.8497 0C64.6497 0 66.9697 0.880001 68.8097 2.64C70.6497 4.4 71.5697 6.72 71.5697 9.60001C71.5697 12.48 70.6497 14.8 68.8097 16.56C66.9697 18.32 64.6497 19.2 61.8497 19.2Z" fill="#151718"/>
<path d="M74.1647 85.68V26.16H89.0447V32.64H91.2047C92.2447 30.64 93.9647 28.92 96.3647 27.48C98.7647 25.96 101.925 25.2 105.845 25.2C110.085 25.2 113.485 26.04 116.045 27.72C118.605 29.32 120.565 31.44 121.925 34.08H124.085C125.445 31.52 127.365 29.4 129.845 27.72C132.325 26.04 135.845 25.2 140.405 25.2C144.085 25.2 147.405 26 150.365 27.6C153.405 29.12 155.805 31.48 157.565 34.68C159.405 37.8 160.325 41.76 160.325 46.56V85.68H145.205V47.64C145.205 44.36 144.365 41.92 142.685 40.32C141.005 38.64 138.645 37.8 135.605 37.8C132.165 37.8 129.485 38.92 127.565 41.16C125.725 43.32 124.805 46.44 124.805 50.52V85.68H109.685V47.64C109.685 44.36 108.845 41.92 107.165 40.32C105.485 38.64 103.125 37.8 100.085 37.8C96.6447 37.8 93.9647 38.92 92.0447 41.16C90.2047 43.32 89.2847 46.44 89.2847 50.52V85.68H74.1647Z" fill="#151718"/>
<path d="M164.587 109.68V26.16H179.467V33.36H181.627C182.987 31.04 185.107 29 187.987 27.24C190.867 25.4 194.987 24.48 200.347 24.48C205.147 24.48 209.587 25.68 213.667 28.08C217.747 30.4 221.027 33.84 223.507 38.4C225.987 42.96 227.227 48.48 227.227 54.96V56.88C227.227 63.36 225.987 68.88 223.507 73.44C221.027 78 217.747 81.48 213.667 83.88C209.587 86.2 205.147 87.36 200.347 87.36C196.747 87.36 193.707 86.92 191.227 86.04C188.827 85.24 186.867 84.2 185.347 82.92C183.907 81.56 182.747 80.2 181.867 78.84H179.707V109.68H164.587ZM195.787 74.16C200.507 74.16 204.387 72.68 207.427 69.72C210.547 66.68 212.107 62.28 212.107 56.52V55.32C212.107 49.56 210.547 45.2 207.427 42.24C204.307 39.2 200.427 37.68 195.787 37.68C191.147 37.68 187.267 39.2 184.147 42.24C181.027 45.2 179.467 49.56 179.467 55.32V56.52C179.467 62.28 181.027 66.68 184.147 69.72C187.267 72.68 191.147 74.16 195.787 74.16Z" fill="#151718"/>
<path d="M229.11 85.68V1.68H244.23V85.68H229.11Z" fill="#151718"/>
<path d="M276.105 87.36C270.185 87.36 264.945 86.12 260.385 83.64C255.905 81.08 252.385 77.52 249.825 72.96C247.345 68.32 246.105 62.88 246.105 56.64V55.2C246.105 48.96 247.345 43.56 249.825 39C252.305 34.36 255.785 30.8 260.265 28.32C264.745 25.76 269.945 24.48 275.865 24.48C281.705 24.48 286.785 25.8 291.105 28.44C295.425 31 298.785 34.6 301.185 39.24C303.585 43.8 304.785 49.12 304.785 55.2V60.36H261.465C261.625 64.44 263.145 67.76 266.025 70.32C268.905 72.88 272.425 74.16 276.585 74.16C280.825 74.16 283.945 73.24 285.945 71.4C287.945 69.56 289.465 67.52 290.505 65.28L302.865 71.76C301.745 73.84 300.105 76.12 297.945 78.6C295.865 81 293.065 83.08 289.545 84.84C286.025 86.52 281.545 87.36 276.105 87.36ZM261.585 49.08H289.425C289.105 45.64 287.705 42.88 285.225 40.8C282.825 38.72 279.665 37.68 275.745 37.68C271.665 37.68 268.425 38.72 266.025 40.8C263.625 42.88 262.145 45.64 261.585 49.08Z" fill="#151718"/>
</svg>
